<?xml version="1.0" encoding="UTF-8"?>
<svg xmlns="http://www.w3.org/2000/svg"
     width="100mm" height="148mm"
     viewBox="0 0 100 148">

  <!-- 1mm方眼（極細線） -->
  <g stroke="#00f" stroke-width="0.05" fill="none" opacity="0.05">
    <!-- 縦線 1mm単位 -->
    <line x1="1" y1="0" x2="1" y2="148"/><line x1="2" y1="0" x2="2" y2="148"/><line x1="3" y1="0" x2="3" y2="148"/><line x1="4" y1="0" x2="4" y2="148"/>
    <line x1="6" y1="0" x2="6" y2="148"/><line x1="7" y1="0" x2="7" y2="148"/><line x1="8" y1="0" x2="8" y2="148"/><line x1="9" y1="0" x2="9" y2="148"/>
    <line x1="11" y1="0" x2="11" y2="148"/><line x1="12" y1="0" x2="12" y2="148"/><line x1="13" y1="0" x2="13" y2="148"/><line x1="14" y1="0" x2="14" y2="148"/>
    <line x1="16" y1="0" x2="16" y2="148"/><line x1="17" y1="0" x2="17" y2="148"/><line x1="18" y1="0" x2="18" y2="148"/><line x1="19" y1="0" x2="19" y2="148"/>
    <line x1="21" y1="0" x2="21" y2="148"/><line x1="22" y1="0" x2="22" y2="148"/><line x1="23" y1="0" x2="23" y2="148"/><line x1="24" y1="0" x2="24" y2="148"/>
    <line x1="26" y1="0" x2="26" y2="148"/><line x1="27" y1="0" x2="27" y2="148"/><line x1="28" y1="0" x2="28" y2="148"/><line x1="29" y1="0" x2="29" y2="148"/>
    <line x1="31" y1="0" x2="31" y2="148"/><line x1="32" y1="0" x2="32" y2="148"/><line x1="33" y1="0" x2="33" y2="148"/><line x1="34" y1="0" x2="34" y2="148"/>
    <line x1="36" y1="0" x2="36" y2="148"/><line x1="37" y1="0" x2="37" y2="148"/><line x1="38" y1="0" x2="38" y2="148"/><line x1="39" y1="0" x2="39" y2="148"/>
    <line x1="41" y1="0" x2="41" y2="148"/><line x1="42" y1="0" x2="42" y2="148"/><line x1="43" y1="0" x2="43" y2="148"/><line x1="44" y1="0" x2="44" y2="148"/>
    <line x1="46" y1="0" x2="46" y2="148"/><line x1="47" y1="0" x2="47" y2="148"/><line x1="48" y1="0" x2="48" y2="148"/><line x1="49" y1="0" x2="49" y2="148"/>
    <line x1="51" y1="0" x2="51" y2="148"/><line x1="52" y1="0" x2="52" y2="148"/><line x1="53" y1="0" x2="53" y2="148"/><line x1="54" y1="0" x2="54" y2="148"/>
    <line x1="56" y1="0" x2="56" y2="148"/><line x1="57" y1="0" x2="57" y2="148"/><line x1="58" y1="0" x2="58" y2="148"/><line x1="59" y1="0" x2="59" y2="148"/>
    <line x1="61" y1="0" x2="61" y2="148"/><line x1="62" y1="0" x2="62" y2="148"/><line x1="63" y1="0" x2="63" y2="148"/><line x1="64" y1="0" x2="64" y2="148"/>
    <line x1="66" y1="0" x2="66" y2="148"/><line x1="67" y1="0" x2="67" y2="148"/><line x1="68" y1="0" x2="68" y2="148"/><line x1="69" y1="0" x2="69" y2="148"/>
    <line x1="71" y1="0" x2="71" y2="148"/><line x1="72" y1="0" x2="72" y2="148"/><line x1="73" y1="0" x2="73" y2="148"/><line x1="74" y1="0" x2="74" y2="148"/>
    <line x1="76" y1="0" x2="76" y2="148"/><line x1="77" y1="0" x2="77" y2="148"/><line x1="78" y1="0" x2="78" y2="148"/><line x1="79" y1="0" x2="79" y2="148"/>
    <line x1="81" y1="0" x2="81" y2="148"/><line x1="82" y1="0" x2="82" y2="148"/><line x1="83" y1="0" x2="83" y2="148"/><line x1="84" y1="0" x2="84" y2="148"/>
    <line x1="86" y1="0" x2="86" y2="148"/><line x1="87" y1="0" x2="87" y2="148"/><line x1="88" y1="0" x2="88" y2="148"/><line x1="89" y1="0" x2="89" y2="148"/>
    <line x1="91" y1="0" x2="91" y2="148"/><line x1="92" y1="0" x2="92" y2="148"/><line x1="93" y1="0" x2="93" y2="148"/><line x1="94" y1="0" x2="94" y2="148"/>
    <line x1="96" y1="0" x2="96" y2="148"/><line x1="97" y1="0" x2="97" y2="148"/><line x1="98" y1="0" x2="98" y2="148"/><line x1="99" y1="0" x2="99" y2="148"/>
    <!-- 横線 1mm単位 -->
    <line x1="0" y1="1" x2="100" y2="1"/><line x1="0" y1="2" x2="100" y2="2"/><line x1="0" y1="3" x2="100" y2="3"/><line x1="0" y1="4" x2="100" y2="4"/>
    <line x1="0" y1="6" x2="100" y2="6"/><line x1="0" y1="7" x2="100" y2="7"/><line x1="0" y1="8" x2="100" y2="8"/><line x1="0" y1="9" x2="100" y2="9"/>
    <line x1="0" y1="11" x2="100" y2="11"/><line x1="0" y1="12" x2="100" y2="12"/><line x1="0" y1="13" x2="100" y2="13"/><line x1="0" y1="14" x2="100" y2="14"/>
    <line x1="0" y1="16" x2="100" y2="16"/><line x1="0" y1="17" x2="100" y2="17"/><line x1="0" y1="18" x2="100" y2="18"/><line x1="0" y1="19" x2="100" y2="19"/>
    <line x1="0" y1="21" x2="100" y2="21"/><line x1="0" y1="22" x2="100" y2="22"/><line x1="0" y1="23" x2="100" y2="23"/><line x1="0" y1="24" x2="100" y2="24"/>
    <line x1="0" y1="26" x2="100" y2="26"/><line x1="0" y1="27" x2="100" y2="27"/><line x1="0" y1="28" x2="100" y2="28"/><line x1="0" y1="29" x2="100" y2="29"/>
    <line x1="0" y1="31" x2="100" y2="31"/><line x1="0" y1="32" x2="100" y2="32"/><line x1="0" y1="33" x2="100" y2="33"/><line x1="0" y1="34" x2="100" y2="34"/>
    <line x1="0" y1="36" x2="100" y2="36"/><line x1="0" y1="37" x2="100" y2="37"/><line x1="0" y1="38" x2="100" y2="38"/><line x1="0" y1="39" x2="100" y2="39"/>
    <line x1="0" y1="41" x2="100" y2="41"/><line x1="0" y1="42" x2="100" y2="42"/><line x1="0" y1="43" x2="100" y2="43"/><line x1="0" y1="44" x2="100" y2="44"/>
    <line x1="0" y1="46" x2="100" y2="46"/><line x1="0" y1="47" x2="100" y2="47"/><line x1="0" y1="48" x2="100" y2="48"/><line x1="0" y1="49" x2="100" y2="49"/>
    <line x1="0" y1="51" x2="100" y2="51"/><line x1="0" y1="52" x2="100" y2="52"/><line x1="0" y1="53" x2="100" y2="53"/><line x1="0" y1="54" x2="100" y2="54"/>
    <line x1="0" y1="56" x2="100" y2="56"/><line x1="0" y1="57" x2="100" y2="57"/><line x1="0" y1="58" x2="100" y2="58"/><line x1="0" y1="59" x2="100" y2="59"/>
    <line x1="0" y1="61" x2="100" y2="61"/><line x1="0" y1="62" x2="100" y2="62"/><line x1="0" y1="63" x2="100" y2="63"/><line x1="0" y1="64" x2="100" y2="64"/>
    <line x1="0" y1="66" x2="100" y2="66"/><line x1="0" y1="67" x2="100" y2="67"/><line x1="0" y1="68" x2="100" y2="68"/><line x1="0" y1="69" x2="100" y2="69"/>
    <line x1="0" y1="71" x2="100" y2="71"/><line x1="0" y1="72" x2="100" y2="72"/><line x1="0" y1="73" x2="100" y2="73"/><line x1="0" y1="74" x2="100" y2="74"/>
    <line x1="0" y1="76" x2="100" y2="76"/><line x1="0" y1="77" x2="100" y2="77"/><line x1="0" y1="78" x2="100" y2="78"/><line x1="0" y1="79" x2="100" y2="79"/>
    <line x1="0" y1="81" x2="100" y2="81"/><line x1="0" y1="82" x2="100" y2="82"/><line x1="0" y1="83" x2="100" y2="83"/><line x1="0" y1="84" x2="100" y2="84"/>
    <line x1="0" y1="86" x2="100" y2="86"/><line x1="0" y1="87" x2="100" y2="87"/><line x1="0" y1="88" x2="100" y2="88"/><line x1="0" y1="89" x2="100" y2="89"/>
    <line x1="0" y1="91" x2="100" y2="91"/><line x1="0" y1="92" x2="100" y2="92"/><line x1="0" y1="93" x2="100" y2="93"/><line x1="0" y1="94" x2="100" y2="94"/>
    <line x1="0" y1="96" x2="100" y2="96"/><line x1="0" y1="97" x2="100" y2="97"/><line x1="0" y1="98" x2="100" y2="98"/><line x1="0" y1="99" x2="100" y2="99"/>
    <line x1="0" y1="101" x2="100" y2="101"/><line x1="0" y1="102" x2="100" y2="102"/><line x1="0" y1="103" x2="100" y2="103"/><line x1="0" y1="104" x2="100" y2="104"/>
    <line x1="0" y1="106" x2="100" y2="106"/><line x1="0" y1="107" x2="100" y2="107"/><line x1="0" y1="108" x2="100" y2="108"/><line x1="0" y1="109" x2="100" y2="109"/>
    <line x1="0" y1="111" x2="100" y2="111"/><line x1="0" y1="112" x2="100" y2="112"/><line x1="0" y1="113" x2="100" y2="113"/><line x1="0" y1="114" x2="100" y2="114"/>
    <line x1="0" y1="116" x2="100" y2="116"/><line x1="0" y1="117" x2="100" y2="117"/><line x1="0" y1="118" x2="100" y2="118"/><line x1="0" y1="119" x2="100" y2="119"/>
    <line x1="0" y1="121" x2="100" y2="121"/><line x1="0" y1="122" x2="100" y2="122"/><line x1="0" y1="123" x2="100" y2="123"/><line x1="0" y1="124" x2="100" y2="124"/>
    <line x1="0" y1="126" x2="100" y2="126"/><line x1="0" y1="127" x2="100" y2="127"/><line x1="0" y1="128" x2="100" y2="128"/><line x1="0" y1="129" x2="100" y2="129"/>
    <line x1="0" y1="131" x2="100" y2="131"/><line x1="0" y1="132" x2="100" y2="132"/><line x1="0" y1="133" x2="100" y2="133"/><line x1="0" y1="134" x2="100" y2="134"/>
    <line x1="0" y1="136" x2="100" y2="136"/><line x1="0" y1="137" x2="100" y2="137"/><line x1="0" y1="138" x2="100" y2="138"/><line x1="0" y1="139" x2="100" y2="139"/>
    <line x1="0" y1="141" x2="100" y2="141"/><line x1="0" y1="142" x2="100" y2="142"/><line x1="0" y1="143" x2="100" y2="143"/><line x1="0" y1="144" x2="100" y2="144"/>
    <line x1="0" y1="146" x2="100" y2="146"/><line x1="0" y1="147" x2="100" y2="147"/>
  </g>

  <!-- 5mm方眼（細線） -->
  <g stroke="#00f" stroke-width="0.1" fill="none" opacity="0.08">
    <!-- 縦線 -->
    <line x1="5" y1="0" x2="5" y2="148"/>
    <line x1="15" y1="0" x2="15" y2="148"/>
    <line x1="25" y1="0" x2="25" y2="148"/>
    <line x1="35" y1="0" x2="35" y2="148"/>
    <line x1="45" y1="0" x2="45" y2="148"/>
    <line x1="55" y1="0" x2="55" y2="148"/>
    <line x1="65" y1="0" x2="65" y2="148"/>
    <line x1="75" y1="0" x2="75" y2="148"/>
    <line x1="85" y1="0" x2="85" y2="148"/>
    <line x1="95" y1="0" x2="95" y2="148"/>
    <!-- 横線 -->
    <line x1="0" y1="5" x2="100" y2="5"/>
    <line x1="0" y1="15" x2="100" y2="15"/>
    <line x1="0" y1="25" x2="100" y2="25"/>
    <line x1="0" y1="35" x2="100" y2="35"/>
    <line x1="0" y1="45" x2="100" y2="45"/>
    <line x1="0" y1="55" x2="100" y2="55"/>
    <line x1="0" y1="65" x2="100" y2="65"/>
    <line x1="0" y1="75" x2="100" y2="75"/>
    <line x1="0" y1="85" x2="100" y2="85"/>
    <line x1="0" y1="95" x2="100" y2="95"/>
    <line x1="0" y1="105" x2="100" y2="105"/>
    <line x1="0" y1="115" x2="100" y2="115"/>
    <line x1="0" y1="125" x2="100" y2="125"/>
    <line x1="0" y1="135" x2="100" y2="135"/>
    <line x1="0" y1="145" x2="100" y2="145"/>
  </g>

  <!-- 10mm方眼（太線） -->
  <g stroke="#00f" stroke-width="0.15" fill="none" opacity="0.12">
    <!-- 縦線 -->
    <line x1="0" y1="0" x2="0" y2="148"/>
    <line x1="10" y1="0" x2="10" y2="148"/>
    <line x1="20" y1="0" x2="20" y2="148"/>
    <line x1="30" y1="0" x2="30" y2="148"/>
    <line x1="40" y1="0" x2="40" y2="148"/>
    <line x1="50" y1="0" x2="50" y2="148"/>
    <line x1="60" y1="0" x2="60" y2="148"/>
    <line x1="70" y1="0" x2="70" y2="148"/>
    <line x1="80" y1="0" x2="80" y2="148"/>
    <line x1="90" y1="0" x2="90" y2="148"/>
    <line x1="100" y1="0" x2="100" y2="148"/>
    <!-- 横線 -->
    <line x1="0" y1="0" x2="100" y2="0"/>
    <line x1="0" y1="10" x2="100" y2="10"/>
    <line x1="0" y1="20" x2="100" y2="20"/>
    <line x1="0" y1="30" x2="100" y2="30"/>
    <line x1="0" y1="40" x2="100" y2="40"/>
    <line x1="0" y1="50" x2="100" y2="50"/>
    <line x1="0" y1="60" x2="100" y2="60"/>
    <line x1="0" y1="70" x2="100" y2="70"/>
    <line x1="0" y1="80" x2="100" y2="80"/>
    <line x1="0" y1="90" x2="100" y2="90"/>
    <line x1="0" y1="100" x2="100" y2="100"/>
    <line x1="0" y1="110" x2="100" y2="110"/>
    <line x1="0" y1="120" x2="100" y2="120"/>
    <line x1="0" y1="130" x2="100" y2="130"/>
    <line x1="0" y1="140" x2="100" y2="140"/>
  </g>

  <!-- 座標ラベル（10mm単位） -->
  <g font-size="2.5" fill="#00f" opacity="0.15">
    <!-- 横軸 -->
    <text x="10" y="3">10</text>
    <text x="20" y="3">20</text>
    <text x="30" y="3">30</text>
    <text x="40" y="3">40</text>
    <text x="50" y="3">50</text>
    <text x="60" y="3">60</text>
    <text x="70" y="3">70</text>
    <text x="80" y="3">80</text>
    <text x="90" y="3">90</text>
    <!-- 縦軸 -->
    <text x="1" y="10">10</text>
    <text x="1" y="20">20</text>
    <text x="1" y="30">30</text>
    <text x="1" y="40">40</text>
    <text x="1" y="50">50</text>
    <text x="1" y="60">60</text>
    <text x="1" y="70">70</text>
    <text x="1" y="80">80</text>
    <text x="1" y="90">90</text>
    <text x="1" y="100">100</text>
    <text x="1" y="110">110</text>
    <text x="1" y="120">120</text>
    <text x="1" y="130">130</text>
    <text x="1" y="140">140</text>
  </g>

</svg>
